<svg width="512" height="512" viewBox="0 0 512 512" fill="none" xmlns="http://www.w3.org/2000/svg">
  <defs>
    <radialGradient id="hackutd" cx="6.07%" cy="6.94%" r="119.34%" gradientUnits="userSpaceOnUse" gradientTransform="translate(31 35.6) scale(611)">
      <stop offset="0.2356" stop-color="#F4F4F4"/>
      <stop offset="0.4327" stop-color="#FFA21F"/>
      <stop offset="0.6058" stop-color="#FF491B"/>
      <stop offset="0.8077" stop-color="#FF005E"/>
      <stop offset="1" stop-color="#6C17FE"/>
    </radialGradient>
  </defs>
  <rect width="512" height="512" rx="112" fill="url(#hackutd)"/>
  <path d="M168 132h40l1 2 8 110 8-10 12-9 14-5 16-1 18 2 14 6 11 10 8 14 5 20 1 10v18l-5 121h-40l-1-126-2-13-6-12-9-7-12-3h-15l-13 4-10 9-6 11-3 14-5 122h-40z" fill="#FCFCFC"/>
</svg>
